<?xml version="1.0"?><svg width="640" height="480" xmlns="http://www.w3.org/2000/svg">
 <title>crown</title>
 <metadata id="metadata6582">image/svg+xml</metadata>
 <g>
  <title>Layer 1</title>
  <g id="layer1">
   <g id="g3608">
    <g id="g3604"/>
    <g id="g3599">
     <path fill="#ffff00" fill-rule="evenodd" stroke="#000000" stroke-width="1.000001px" id="path3579" d="m142.668594,215.404694c0,3.485748 53.677734,123.743744 63.013,123.743744c9.335236,0 245.05043,0 245.05043,0l44.342499,-116.772278l-119.024506,45.314606l-51.343933,-111.543671l-63.01297,116.772308l-119.024521,-57.514709z"/>
     <path fill="#ffff00" fill-rule="evenodd" stroke-width="1px" id="path3595" d="m176.938995,296.095001c3.971008,1.708008 300.992004,-14.519989 300.992004,-14.519989l3.175995,-45.266006l-95.299988,29.038986l-51.622009,-96.511993c0,0 -63.53299,111.031006 -69.092987,105.906006c-5.559021,-5.123993 -114.360016,-46.973999 -114.360016,-46.973999l26.207001,68.326996l0,0z"/>
     <path fill="#ffff00" stroke-width="1px" id="text3559" d="m326.381134,120.27243l-76.501175,134.047379l-139.265343,-58.825073l73.422157,151.510452c31.629089,3.178833 74.472351,4.796417 128.548126,4.796173c58.666687,0.000244 108.919891,-1.61734 150.75238,-4.796173l47.487579,-139.335449l-123.9888,41.853882l-60.454926,-129.25119zm-3.078949,66.736755l44.408539,94.325073l95.626556,-32.343536l-25.993896,75.263245c-35.200409,3.532135 -73.748932,5.288361 -115.580688,5.288177c-45.913483,0.000183 -83.883514,-1.756042 -113.982086,-5.288177l-37.48085,-76.820969l95.62648,40.255173l57.375946,-100.678986z"/>
     <ellipse ry="21.258313" rx="19.767065" id="svg_1" cy="197.134108" cx="120.805801" stroke-width="1px" fill="#ffff00"/>
     <ellipse id="svg_5" ry="21.258313" rx="19.767065" cy="128.531272" cx="325.454546" stroke-width="1px" fill="#ffff00"/>
     <ellipse id="svg_6" ry="21.258313" rx="19.767065" cy="209.699377" cx="505.155136" stroke-width="1px" fill="#ffff00"/>
    </g>
   </g>
  </g>
  <text fill="#000000" stroke="#000000" stroke-width="0" x="183" y="385" id="svg_2" font-size="24" font-family="serif" text-anchor="middle" xml:space="preserve"/>
  <line fill="none" stroke="#000000" stroke-width="5" x1="187" y1="346" x2="122" y2="209" id="svg_14"/>
  <line fill="none" stroke="#000000" stroke-width="5" x1="186" y1="347" x2="473" y2="347" id="svg_15"/>
  <line fill="none" stroke="#000000" stroke-width="5" x1="474" y1="345" x2="515" y2="223" id="svg_16"/>
  <line fill="none" stroke="#000000" stroke-width="5" x1="396" y1="242" x2="494" y2="207" id="svg_17"/>
  <line fill="none" stroke="#000000" stroke-width="5" x1="396" y1="240" x2="347" y2="130" id="svg_18"/>
  <line fill="none" stroke="#000000" stroke-width="5" x1="255" y1="245" x2="317" y2="132" id="svg_19"/>
  <line fill="none" stroke="#000000" stroke-width="5" x1="254" y1="246" x2="140" y2="196" id="svg_20"/>
  <circle fill="#ffff00" stroke="#000000" stroke-width="5" cx="121" cy="188" r="26.417969" id="svg_23"/>
  <circle fill="#ffff00" stroke="#000000" stroke-width="5" cx="331" cy="120" r="26.417969" id="svg_24"/>
  <circle fill="#ffff00" stroke="#000000" stroke-width="5" cx="514" cy="200" r="26.417969" id="svg_25"/>
 </g>
</svg>